<svg xmlns="http://www.w3.org/2000/svg" viewBox="0 0 112 112" aria-labelledby="usd-title" role="img">
	<title id="usd-title">USD Icon</title>
	<defs>
		<filter color-interpolation-filters="sRGB" filterUnits="userSpaceOnUse" height="112"
			id="filter0_dd_955_4382" width="112" x="0" y="0">
			<feFlood flood-opacity="0" result="BackgroundImageFix" />
			<feColorMatrix in="SourceAlpha" result="hardAlpha" type="matrix"
				values="0 0 0 0 0 0 0 0 0 0 0 0 0 0 0 0 0 0 127 0" />
			<feOffset />
			<feGaussianBlur stdDeviation="4" />
			<feComposite in2="hardAlpha" operator="out" />
			<feColorMatrix type="matrix"
				values="0 0 0 0 0.715625 0 0 0 0 0.728516 0 0 0 0 0.75 0 0 0 0.04 0" />
			<feBlend in2="BackgroundImageFix" />
			<feColorMatrix in="SourceAlpha" result="hardAlpha" type="matrix"
				values="0 0 0 0 0 0 0 0 0 0 0 0 0 0 0 0 0 0 127 0" />
			<feOffset dy="2" />
			<feGaussianBlur stdDeviation="1.5" />
			<feComposite in2="hardAlpha" operator="out" />
			<feColorMatrix type="matrix" values="0 0 0 0 0 0 0 0 0 0 0 0 0 0 0 0 0 0 0.02 0" />
			<feBlend in2="effect1_dropShadow_955_4382" />
			<feBlend in="SourceGraphic" in2="effect2_dropShadow_955_4382" />
		</filter>
		<linearGradient id="paint0_linear_955_4382" x1="-0.02" x2="1.16" y1="1.86" y2="1.61">
			<stop stop-color="#181818" />
			<stop offset="1" stop-color="#2F2F2F" />
		</linearGradient>
	</defs>
	<g class="layer">
		<g filter="url(#filter0_dd_955_4382)" id="svg_1">
			<rect fill="url(#paint0_linear_955_4382)" height="112" id="svg_2" rx="56" width="112" x="0"
				y="0" />
			<path
				d="m53.96,81.09l0,-50.91l3.26,0l0,50.91l-3.26,0zm10.2,-35.12c-0.21,-1.88 -1.08,-3.34 -2.62,-4.37c-1.54,-1.05 -3.47,-1.57 -5.81,-1.57c-1.67,0 -3.11,0.26 -4.33,0.79c-1.22,0.52 -2.17,1.23 -2.85,2.15c-0.66,0.9 -0.99,1.93 -0.99,3.08c0,0.97 0.22,1.8 0.68,2.51c0.46,0.7 1.06,1.29 1.8,1.77c0.76,0.46 1.57,0.85 2.43,1.17c0.86,0.3 1.69,0.56 2.49,0.76l3.97,1.03c1.3,0.32 2.64,0.75 4,1.29c1.37,0.55 2.63,1.26 3.8,2.15c1.17,0.89 2.11,1.99 2.82,3.3c0.73,1.31 1.1,2.88 1.1,4.71c0,2.31 -0.6,4.36 -1.79,6.15c-1.18,1.79 -2.9,3.2 -5.15,4.24c-2.24,1.03 -4.95,1.55 -8.14,1.55c-3.05,0 -5.68,-0.49 -7.91,-1.46c-2.23,-0.96 -3.97,-2.34 -5.23,-4.11c-1.26,-1.79 -1.96,-3.91 -2.09,-6.37l6.17,0c0.11,1.48 0.59,2.7 1.43,3.68c0.85,0.97 1.93,1.69 3.24,2.17c1.32,0.46 2.78,0.7 4.35,0.7c1.74,0 3.28,-0.27 4.64,-0.82c1.36,-0.56 2.44,-1.32 3.22,-2.31c0.78,-0.99 1.17,-2.15 1.17,-3.48c0,-1.2 -0.34,-2.19 -1.03,-2.96c-0.68,-0.77 -1.6,-1.4 -2.77,-1.91c-1.15,-0.5 -2.46,-0.95 -3.91,-1.33l-4.82,-1.31c-3.26,-0.89 -5.84,-2.2 -7.75,-3.92c-1.9,-1.72 -2.85,-4 -2.85,-6.84c0,-2.35 0.64,-4.4 1.91,-6.15c1.28,-1.75 3,-3.1 5.17,-4.07c2.18,-0.98 4.63,-1.47 7.36,-1.47c2.76,0 5.19,0.48 7.3,1.45c2.12,0.97 3.79,2.3 5.01,3.99c1.22,1.69 1.86,3.62 1.91,5.81l-5.93,0z"
				fill="white" id="svg_3" />
		</g>
	</g>
</svg>