<svg xmlns="http://www.w3.org/2000/svg" viewBox="0 0 112 112" aria-labelledby="usdt-title" role="img">
	<title id="usdt-title">Tether Icon</title>
	<defs>
		<filter color-interpolation-filters="sRGB" filterUnits="userSpaceOnUse" height="112"
			id="filter0_dd_955_4327" width="112" x="0" y="0">
			<feFlood flood-opacity="0" result="BackgroundImageFix" />
			<feColorMatrix in="SourceAlpha" result="hardAlpha" type="matrix"
				values="0 0 0 0 0 0 0 0 0 0 0 0 0 0 0 0 0 0 127 0" />
			<feOffset />
			<feGaussianBlur stdDeviation="4" />
			<feComposite in2="hardAlpha" operator="out" />
			<feColorMatrix type="matrix"
				values="0 0 0 0 0.715625 0 0 0 0 0.728516 0 0 0 0 0.75 0 0 0 0.04 0" />
			<feBlend in2="BackgroundImageFix" />
			<feColorMatrix in="SourceAlpha" result="hardAlpha" type="matrix"
				values="0 0 0 0 0 0 0 0 0 0 0 0 0 0 0 0 0 0 127 0" />
			<feOffset dy="2" />
			<feGaussianBlur stdDeviation="1.5" />
			<feComposite in2="hardAlpha" operator="out" />
			<feColorMatrix type="matrix" values="0 0 0 0 0 0 0 0 0 0 0 0 0 0 0 0 0 0 0.02 0" />
			<feBlend in2="effect1_dropShadow_955_4327" />
			<feBlend in="SourceGraphic" in2="effect2_dropShadow_955_4327" />
		</filter>
		<linearGradient id="paint0_linear_955_4327" x1="0.1" x2="0.59" y1="1.37" y2="0.32">
			<stop stop-color="#8DDAD5" />
			<stop offset="1" stop-color="#1BA27A" />
		</linearGradient>
	</defs>
	<g class="layer">
		<g filter="url(#filter0_dd_955_4327)" id="svg_1">
			<rect fill="url(#paint0_linear_955_4327)" height="112" id="svg_2" rx="56" width="112" x="0.5"
				y="0" />
			<path d="m83.05,26.62l-53.89,0l0,12.83l20.44,0l0,18.87l13.01,0l0,-18.87l20.44,0l0,-12.83z"
				fill="white" id="svg_3" transform="matrix(1 0 0 1 0 0)" />
			<path
				d="m56.23,60.33c-16.91,0 -30.61,-2.64 -30.61,-5.89c0,-3.26 13.71,-5.9 30.61,-5.9c16.92,0 30.63,2.65 30.63,5.9c0,3.26 -13.71,5.89 -30.63,5.89zm34.38,-4.91c0,-4.2 -15.39,-7.61 -34.38,-7.61c-18.98,0 -34.38,3.41 -34.38,7.61c0,3.69 11.94,6.78 27.76,7.47l0,27.08l13.01,0l0,-27.08c15.94,-0.66 28,-3.75 28,-7.47l-0.01,0z"
				fill="white" id="svg_4" />
		</g>
	</g>
</svg>