<svg 
	viewBox="0 0 64 64" 
	width="96" height="96"
	aria-labelledby="btc-title" 
	role="img"
	xmlns="http://www.w3.org/2000/svg" 
	xmlns:svg="http://www.w3.org/2000/svg"
>
	<title id="btc-title">Bitcoin Icon</title>
	<defs>
		<linearGradient id="g1" x1="15.85%" x2="84.15%" y1="109.15%" y2="-9.15%">
			<stop stop-color="#FF930F" />
			<stop offset="0.93" stop-color="#FBC411" />
		</linearGradient>
	</defs>
	<g class="layer" id="svg_3">
		<path
			d="m63.04,39.74c-4.27,17.14 -21.64,27.58 -38.78,23.3c-17.14,-4.27 -27.57,-21.64 -23.3,-38.78c4.27,-17.14 21.64,-27.58 38.78,-23.3c17.14,4.27 27.57,21.64 23.3,38.78z"
			fill="url(#g1)" id="svg_1" />
		<path
			d="m46.11,27.44c0.64,-4.26 -2.61,-6.55 -7.04,-8.07l1.44,-5.77l-3.51,-0.88l-1.4,5.62c-0.92,-0.23 -1.87,-0.45 -2.81,-0.66l1.41,-5.66l-3.51,-0.87l-1.44,5.77c-0.77,-0.18 -1.52,-0.35 -2.24,-0.53l0,-0.02l-4.84,-1.21l-0.94,3.75s2.61,0.6 2.55,0.64c1.43,0.35 1.68,1.29 1.64,2.04l-1.64,6.57c0.1,0.02 0.23,0.06 0.37,0.12l-0.37,-0.1l-2.3,9.21c-0.17,0.43 -0.62,1.08 -1.61,0.83c0.04,0.05 -2.55,-0.63 -2.55,-0.63l-1.74,4.02l4.57,1.13c0.85,0.22 1.68,0.44 2.5,0.65l-1.46,5.84l3.51,0.87l1.44,-5.77c0.96,0.26 1.89,0.5 2.8,0.72l-1.44,5.75l3.51,0.87l1.46,-5.82c5.98,1.13 10.49,0.68 12.38,-4.74c1.53,-4.36 -0.07,-6.87 -3.22,-8.51c2.29,-0.53 4.02,-2.04 4.48,-5.16zm-8.02,11.25c-1.09,4.36 -8.43,2 -10.81,1.41l1.93,-7.73c2.38,0.6 10.01,1.77 8.88,6.32zm1.08,-11.31c-0.99,3.96 -7.1,1.95 -9.08,1.45l1.75,-7.01c1.98,0.5 8.36,1.42 7.33,5.56z"
			fill="#fff" id="svg_2" />
	</g>
</svg>