<svg xmlns="http://www.w3.org/2000/svg" viewBox="0 0 112 112" aria-labelledby="btc-title" role="img">
	<title id="btc-title">Bitcoin Icon</title>
	<defs>
		<filter color-interpolation-filters="sRGB" filterUnits="userSpaceOnUse" height="112"
			id="filter0_dd_955_4337" width="112" x="0" y="0">
			<feFlood flood-opacity="0" result="BackgroundImageFix" />
			<feColorMatrix in="SourceAlpha" result="hardAlpha" type="matrix"
				values="0 0 0 0 0 0 0 0 0 0 0 0 0 0 0 0 0 0 127 0" />
			<feOffset />
			<feGaussianBlur stdDeviation="4" />
			<feComposite in2="hardAlpha" operator="out" />
			<feColorMatrix type="matrix"
				values="0 0 0 0 0.715625 0 0 0 0 0.728516 0 0 0 0 0.75 0 0 0 0.04 0" />
			<feBlend in2="BackgroundImageFix" />
			<feColorMatrix in="SourceAlpha" result="hardAlpha" type="matrix"
				values="0 0 0 0 0 0 0 0 0 0 0 0 0 0 0 0 0 0 127 0" />
			<feOffset dy="2" />
			<feGaussianBlur stdDeviation="1.5" />
			<feComposite in2="hardAlpha" operator="out" />
			<feColorMatrix type="matrix" values="0 0 0 0 0 0 0 0 0 0 0 0 0 0 0 0 0 0 0.02 0" />
			<feBlend in2="effect1_dropShadow_955_4337" />
			<feBlend in="SourceGraphic" in2="effect2_dropShadow_955_4337" />
		</filter>
		<linearGradient id="paint0_linear_955_4337" x1="-0.17" x2="0.82" y1="1.7" y2="0">
			<stop stop-color="#FF930F" />
			<stop offset="1" stop-color="#FBC411" />
		</linearGradient>
	</defs>
	<g class="layer">
		<g filter="url(#filter0_dd_955_4337)" id="svg_1">
			<rect fill="url(#paint0_linear_955_4337)" height="112" id="svg_2" rx="56" width="112" x="0" y="0" />
			<path
				d="m79.26,49.09c1.06,-7.05 -4.31,-10.83 -11.66,-13.36l2.38,-9.56l-5.81,-1.44l-2.31,9.29c-1.53,-0.38 -3.1,-0.74 -4.66,-1.09l2.33,-9.36l-5.81,-1.45l-2.38,9.55c-1.26,-0.29 -2.51,-0.58 -3.71,-0.88l0,-0.03l-8.01,-2l-1.55,6.21c0,0 4.32,0.99 4.22,1.05c2.36,0.59 2.78,2.14 2.71,3.38l-2.71,10.88c0.17,0.04 0.37,0.1 0.6,0.19l-0.61,-0.15l-3.8,15.24c-0.29,0.72 -1.02,1.79 -2.66,1.38c0.06,0.09 -4.23,-1.05 -4.23,-1.05l-2.88,6.65l7.57,1.89c1.4,0.35 2.78,0.72 4.14,1.06l-2.4,9.66l5.8,1.45l2.38,-9.56c1.59,0.43 3.13,0.83 4.63,1.21l-2.37,9.51l5.81,1.44l2.4,-9.63c9.91,1.87 17.38,1.11 20.51,-7.85c2.53,-7.22 -0.13,-11.39 -5.34,-14.1c3.8,-0.87 6.66,-3.37 7.42,-8.53zm-13.27,18.62c-1.8,7.22 -13.96,3.32 -17.9,2.34l3.19,-12.8c3.94,0.99 16.58,2.94 14.71,10.46zm1.79,-18.73c-1.64,6.57 -11.76,3.23 -15.04,2.42l2.89,-11.6c3.28,0.81 13.86,2.34 12.15,9.18z"
				fill="white" id="svg_3" transform="matrix(1 0 0 1 0 0)" />
			<path d="m42.37,50.03l0.86,0.21l-0.16,0.64l-0.86,-0.22l0.16,-0.63z" fill="white" id="svg_4" />
		</g>
	</g>
</svg>