<svg 
	viewBox="0 0 56 56" 
	width="96" height="96"
	aria-labelledby="ton-title" 
	role="img"
	xmlns="http://www.w3.org/2000/svg" 
	xmlns:svg="http://www.w3.org/2000/svg"
>
	<title id="ton-title">Toncoin Icon</title>
	<defs>
		<linearGradient id="g1" x1="85.34%" y1="-8.81%" x2="14.66%" y2="108.81%">
		<stop stop-color="#04BEFE"/>
		<stop offset="1.08" stop-color="#4481EB"/>
		</linearGradient>
	</defs>
	<g class="layer">
		<circle cx="28" cy="28" fill="url(#g1)" id="svg_1" r="28"/>
		<path d="m17.97,15.08l19.74,0c0.75,0 1.38,0.12 2.14,0.49c0.88,0.37 1.38,0.98 1.63,1.48c0,0 0,0.12 0.13,0.12c0.38,0.61 0.63,1.35 0.63,2.21c0,0.74 -0.13,1.48 -0.63,2.21c0,0 0,0 0,0l-12.45,20.9c-0.25,0.49 -0.75,0.74 -1.38,0.74c-0.5,0 -1.01,-0.25 -1.38,-0.74l-12.19,-20.9c0,0 0,0 0,0c-0.25,-0.49 -0.75,-1.11 -0.75,-2.09c-0.13,-0.86 0.13,-1.6 0.5,-2.34c0.38,-0.74 1.01,-1.35 1.89,-1.6c0.75,-0.49 1.63,-0.49 2.14,-0.49zm8.3,2.95l-8.3,0c-0.5,0 -0.75,0 -0.88,0.12c-0.25,0.12 -0.38,0.25 -0.5,0.49c-0.13,0.12 -0.13,0.37 -0.13,0.61c0,0.12 0.13,0.25 0.38,0.74c0,0 0,0 0,0l9.43,15.98l0,-17.95zm3.02,0l0,18.07l9.55,-16.1c0.13,-0.25 0.13,-0.49 0.13,-0.74c0,-0.25 0,-0.49 -0.13,-0.61c-0.13,-0.12 -0.13,-0.25 -0.25,-0.25c0,0 -0.13,-0.12 -0.13,-0.12c-0.25,-0.12 -0.5,-0.12 -0.88,-0.12l-8.3,0l0,-0.12z" fill="#FFFFFF" id="svg_2"/>
	</g>
</svg>