<svg xmlns="http://www.w3.org/2000/svg" viewBox="0 0 112 112" aria-labelledby="ton-title" role="img">
	<title id="ton-title">Toncoin Icon</title>
	<defs>
		<filter color-interpolation-filters="sRGB" filterUnits="userSpaceOnUse" height="112"
			id="filter0_dd_955_4333" width="112" x="0" y="0">
			<feFlood flood-opacity="0" result="BackgroundImageFix" />
			<feColorMatrix in="SourceAlpha" result="hardAlpha" type="matrix"
				values="0 0 0 0 0 0 0 0 0 0 0 0 0 0 0 0 0 0 127 0" />
			<feOffset />
			<feGaussianBlur stdDeviation="4" />
			<feComposite in2="hardAlpha" operator="out" />
			<feColorMatrix type="matrix"
				values="0 0 0 0 0.715625 0 0 0 0 0.728516 0 0 0 0 0.75 0 0 0 0.04 0" />
			<feBlend in2="BackgroundImageFix" />
			<feColorMatrix in="SourceAlpha" result="hardAlpha" type="matrix"
				values="0 0 0 0 0 0 0 0 0 0 0 0 0 0 0 0 0 0 127 0" />
			<feOffset dy="2" />
			<feGaussianBlur stdDeviation="1.5" />
			<feComposite in2="hardAlpha" operator="out" />
			<feColorMatrix type="matrix" values="0 0 0 0 0 0 0 0 0 0 0 0 0 0 0 0 0 0 0.02 0" />
			<feBlend in2="effect1_dropShadow_955_4333" />
			<feBlend in="SourceGraphic" in2="effect2_dropShadow_955_4333" />
		</filter>
		<linearGradient id="paint0_linear_955_4333" x1="0.93" x2="0.15" y1="-0.08" y2="1.22">
			<stop stop-color="#04BEFE" />
			<stop offset="1" stop-color="#4481EB" />
		</linearGradient>
	</defs>
	<g class="layer">
		<g filter="url(#filter0_dd_955_4333)" id="svg_1">
			<rect fill="url(#paint0_linear_955_4333)" height="112" id="svg_2" rx="56" width="112" x="0"
				y="0" />
			<path
				d="m72.82,34.79l-32.78,0c-6.03,0 -9.85,6.5 -6.82,11.76l20.23,35.06c1.32,2.29 4.63,2.29 5.95,0l20.24,-35.06c3.02,-5.25 -0.8,-11.76 -6.82,-11.76l0,0zm-19.38,36.31l-4.41,-8.53l-10.63,-19.01c-0.7,-1.22 0.16,-2.78 1.63,-2.78l13.4,0l0,30.32l0.01,0zm21.01,-27.55l-10.63,19.02l-4.41,8.53l0,-30.32l13.4,0c1.47,0 2.34,1.56 1.64,2.77z"
				fill="white" id="svg_3" />
		</g>
	</g>
</svg>