<svg xmlns="http://www.w3.org/2000/svg" viewBox="0 0 112 112" aria-labelledby="trx-title" role="img">
	<title id="trx-title">Tron Icon</title>
	<defs>
		<linearGradient id="paint0_linear_955_4343" x1="0.65" x2="0" y1="0.15" y2="1.49">
			<stop stop-color="#FC070C" />
			<stop offset="1" stop-color="#F45C43" />
		</linearGradient>
	</defs>
	<g class="layer">
		<rect fill="url(#paint0_linear_955_4343)" height="112" id="svg_2" rx="56" width="112" x="0" y="0" />
		<path clip-rule="evenodd"
			d="m88.07,46.03c-1.33,-1.23 -2.88,-2.72 -4.5,-4.28c-2.27,-2.2 -4.67,-4.51 -6.79,-6.37l-0.21,-0.15c-0.36,-0.28 -0.76,-0.51 -1.19,-0.66l-1.64,-0.3c-11.27,-2.08 -47.81,-8.86 -48.56,-8.77c-0.22,0.03 -0.43,0.1 -0.62,0.23l-0.21,0.16c-0.25,0.26 -0.43,0.56 -0.55,0.9l-0.06,0.14l0,0.76l0,0.12c2.48,6.86 8.93,22.19 14.88,36.32l0,0l0,0l0,0.01c5.03,11.95 9.7,23.08 11.33,27.53l0.01,0c0.21,0.66 0.62,1.92 1.38,1.99l0.16,0c0.41,0 2.14,-2.28 2.14,-2.28c0,0 31.06,-37.41 34.19,-41.39c0.41,-0.49 0.77,-1.01 1.08,-1.57c0.15,-0.88 -0.16,-1.79 -0.85,-2.38l0.01,-0.01zm-26.44,4.35l13.25,-10.91l7.77,7.1l-21.02,3.8l0,0.01zm-27.96,-19.28l22.81,18.57l14.11,-11.81l-36.92,-6.76zm24.87,23.44l23.35,-3.74l-26.7,31.95l3.35,-28.21zm-3.97,-1.36l-24,-20.23l20.52,49.82l3.48,-29.59z"
			fill="white" fill-rule="evenodd" id="svg_3" />
	</g>
</svg>