<svg 
	viewBox="0 0 512 512" 
	width="96" height="96"
	aria-labelledby="usd-title" 
	role="img"
	xmlns="http://www.w3.org/2000/svg" 
	xmlns:svg="http://www.w3.org/2000/svg"
>
	<title id="usd-title">USD Icon</title>
	<defs>
		<linearGradient id="g1" x1="95.28%" y1="-3.96%" x2="4.72%" y2="103.96%">
			<stop offset="0.1" stop-color="#010417" />
			<stop offset="0.84" stop-color="#2B333F" />
		</linearGradient>
	</defs>
	<g class="layer">
		<circle cx="256.25" cy="255.88" fill="url(#g1)" id="svg_2" r="256"
			transform="matrix(1 0 0 1 0 0)" />
		<path
			d="m247.54,410.36l0,-25.31c-53.11,-3.18 -85.37,-31.64 -85.54,-74.78l48.12,0c1.18,18.31 15.95,32.29 37.42,34.75l0,-68.12l-17.89,-4.87c-40.76,-9.86 -62.58,-34.33 -62.58,-70.95c0,-43.17 29.73,-71.48 80.47,-75.71l0,-26.41l21.38,0l0,26.41c51.72,4.38 79.53,33.18 80.19,73.68l-48.12,0c-0.51,-16.72 -10.58,-30.16 -32.08,-31.97l0,63.95l20.6,5.06c43.3,9.86 64.94,33.17 64.94,71.4c0,44.72 -29.23,73.59 -85.54,77.38l0,25.5l-21.38,0l0.01,-0.01zm0,-183.5l0,-59.78c-18.44,1.06 -31.59,12.84 -31.59,29.56c0,15.5 10.95,25.63 31.59,30.21l0,0.01zm21.38,54.22l0,63.95c25.49,-1.07 37.68,-13.15 37.68,-31.81c0,-17.08 -12.18,-28.59 -37.68,-32.13l0,-0.01z"
			fill="#fff" id="svg_1" transform="matrix(1 0 0 1 0 0)" />
	</g>
</svg>