<svg
	viewBox="0 0 2000 2000"
	width="2000" height="2000"
	aria-labelledby="usdc-title" 
	role="img"
	xmlns="http://www.w3.org/2000/svg"
	xmlns:svg="http://www.w3.org/2000/svg"
>
	<title id="usdc-title">USD Coin Icon</title>
	<defs>
		<linearGradient id="g1" x1="88.81%" y1="-7.54%" x2="11.19%" y2="107.54%">
			<stop offset="0.42" stop-color="#2775CA" />
			<stop offset="1.66" stop-color="#00BBF9" />
		</linearGradient>
	</defs>
	<g class="layer">
		<path
			d="m1000,2000c554.17,0 1000,-445.83 1000,-1000s-445.83,-1000 -1000,-1000s-1000,445.83 -1000,1000s445.83,1000 1000,1000z"
			fill="url(#g1)" id="svg_1" />
		<path
			d="m1275,1158.33c0,-145.83 -87.5,-195.83 -262.5,-216.66c-125,-16.67 -150,-50 -150,-108.34s41.67,-95.83 125,-95.83c75,0 116.67,25 137.5,87.5c4.17,12.5 16.67,20.83 29.17,20.83l66.66,0c16.67,0 29.17,-12.5 29.17,-29.16l0,-4.17c-16.67,-91.67 -91.67,-162.5 -187.5,-170.83l0,-100c0,-16.67 -12.5,-29.17 -33.33,-33.34l-62.5,0c-16.67,0 -29.17,12.5 -33.34,33.34l0,95.83c-125,16.67 -204.16,100 -204.16,204.17c0,137.5 83.33,191.66 258.33,212.5c116.67,20.83 154.17,45.83 154.17,112.5s-58.34,112.5 -137.5,112.5c-108.34,0 -145.84,-45.84 -158.34,-108.34c-4.16,-16.66 -16.66,-25 -29.16,-25l-70.84,0c-16.66,0 -29.16,12.5 -29.16,29.17l0,4.17c16.66,104.16 83.33,179.16 220.83,200l0,100c0,16.66 12.5,29.16 33.33,33.33l62.5,0c16.67,0 29.17,-12.5 33.34,-33.33l0,-100c125,-20.84 208.33,-108.34 208.33,-220.84z"
			fill="#fff" id="svg_2" />
		<path
			d="m787.5,1595.83c-325,-116.66 -491.67,-479.16 -370.83,-800c62.5,-175 200,-308.33 370.83,-370.83c16.67,-8.33 25,-20.83 25,-41.67l0,-58.33c0,-16.67 -8.33,-29.17 -25,-33.33c-4.17,0 -12.5,0 -16.67,4.16c-395.83,125 -612.5,545.84 -487.5,941.67c75,233.33 254.17,412.5 487.5,487.5c16.67,8.33 33.34,0 37.5,-16.67c4.17,-4.16 4.17,-8.33 4.17,-16.66l0,-58.34c0,-12.5 -12.5,-29.16 -25,-37.5zm441.67,-1300c-16.67,-8.33 -33.34,0 -37.5,16.67c-4.17,4.17 -4.17,8.33 -4.17,16.67l0,58.33c0,16.67 12.5,33.33 25,41.67c325,116.66 491.67,479.16 370.83,800c-62.5,175 -200,308.33 -370.83,370.83c-16.67,8.33 -25,20.83 -25,41.67l0,58.33c0,16.67 8.33,29.17 25,33.33c4.17,0 12.5,0 16.67,-4.16c395.83,-125 612.5,-545.84 487.5,-941.67c-75,-237.5 -258.34,-416.67 -487.5,-491.67z"
			fill="#fff" id="svg_3" />
	</g>
</svg>