<svg 
	viewBox="0 0 2000 2000" 
	width="96" height="96"
	aria-labelledby="usdt-title" 
	role="img"
	xmlns="http://www.w3.org/2000/svg"
	xmlns:svg="http://www.w3.org/2000/svg"
>
	<title id="usdt-title">Tether Icon</title>
	<defs>
		<linearGradient id="g1" x1="21.92%" y1="110.22%" x2="78.08%" y2="-10.22%">
			<stop stop-color="#8DDAD5" />
			<stop offset="0.65" stop-color="#1BA27A" />
		</linearGradient>
	</defs>
	<g class="layer">
		<path
			d="m1000,0c552.26,0 1000,447.74 1000,1000s-447.76,1000 -1000,1000s-1000,-447.62 -1000,-1000s447.68,-1000 1000,-1000"
			fill="url(#g1)" id="svg_1" />
		<path
			d="m1123.42,866.76l0,-148.76l340.18,0l0,-226.66l-926.32,0l0,226.66l340.22,0l0,148.64c-276.5,12.7 -484.4,67.46 -484.4,133.06s208,120.36 484.4,133.14l0,476.5l246,0l0,-476.54c276,-12.74 483.48,-67.46 483.48,-133s-207.48,-120.26 -483.48,-133m0,225.64l0,-0.12c-6.94,0.44 -42.6,2.58 -122,2.58c-63.48,0 -108.14,-1.8 -123.88,-2.62l0,0.2c-244.28,-10.82 -426.62,-53.36 -426.62,-104.26s182.36,-93.38 426.62,-104.22l0,166.1c16,1.1 61.76,3.8 124.92,3.8c75.86,0 114,-3.16 121,-3.8l0,-166.1c243.8,10.86 425.72,53.44 425.72,104.16s-182,93.32 -425.72,104.18"
			fill="#fff" id="svg_2" transform="matrix(1 0 0 1 0 0)" />
	</g>
</svg>